<?xml version="1.0" standalone="no"?>
<!DOCTYPE svg PUBLIC "-//W3C//DTD SVG 20010904//EN"
 "http://www.w3.org/TR/2001/REC-SVG-20010904/DTD/svg10.dtd">
<svg version="1.0" xmlns="http://www.w3.org/2000/svg"
 width="300.000000pt" height="300.000000pt" viewBox="0 0 300.000000 300.000000"
 preserveAspectRatio="xMidYMid meet">
<metadata>
Created by potrace 1.11, written by Peter Selinger 2001-2013
</metadata>
<g transform="translate(0.000000,300.000000) scale(0.100000,-0.100000)"
fill="#000000" stroke="none">
<path d="M1526 2688 c-8 -18 -30 -79 -51 -135 l-37 -103 -411 -2 -410 -3 -30
-80 c-16 -44 -44 -120 -62 -170 -18 -49 -101 -277 -185 -505 -128 -350 -220
-601 -220 -604 0 -1 184 -1 409 0 l409 0 -8 -25 c-7 -24 -223 -616 -237 -651
-3 -8 -16 -43 -29 -78 l-22 -62 411 2 411 3 47 128 c26 71 49 130 52 133 2 3
187 5 411 5 l407 0 10 27 c6 15 26 68 44 117 146 404 388 1064 395 1080 24 56
49 135 42 138 -4 2 -188 3 -409 2 l-401 -1 43 120 c40 113 155 428 224 614
l30 82 -410 0 -410 0 -13 -32z m454 -246 c0 -4 -44 -126 -97 -272 l-97 -266
-395 1 c-218 0 -403 -1 -411 -3 -13 -3 -78 -156 -105 -249 l-6 -23 815 0 c497
0 816 -4 816 -9 0 -5 -35 -106 -78 -223 -44 -117 -107 -292 -142 -388 -35 -96
-67 -179 -72 -185 -6 -6 -159 -10 -413 -10 -222 0 -406 -2 -408 -5 -2 -3 -23
-59 -47 -125 -23 -66 -46 -125 -51 -131 -10 -12 -269 -17 -269 -5 0 3 37 105
81 226 45 121 85 232 89 247 21 68 -13 63 427 65 219 1 403 2 409 2 9 1 104
243 104 265 0 3 -367 6 -816 6 -813 0 -816 0 -811 20 3 11 56 159 117 328 144
395 159 434 169 452 7 13 64 15 416 15 399 0 408 0 416 20 4 11 24 67 45 125
20 58 41 110 46 117 10 13 268 18 268 5z"/>
</g>
</svg>
