<?xml version="1.0" standalone="no"?>
<!DOCTYPE svg PUBLIC "-//W3C//DTD SVG 20010904//EN"
 "http://www.w3.org/TR/2001/REC-SVG-20010904/DTD/svg10.dtd">
<svg version="1.0" xmlns="http://www.w3.org/2000/svg"
 width="185.000000pt" height="185.000000pt" viewBox="0 0 185.000000 185.000000"
 preserveAspectRatio="xMidYMid meet">
<metadata>
Created by potrace 1.14, written by Peter Selinger 2001-2017
</metadata>
<g transform="translate(0.000000,185.000000) scale(0.100000,-0.100000)"
fill="#000000" stroke="none">
<path d="M334 1560 c-62 -13 -154 -63 -201 -109 -55 -53 -87 -104 -112 -180
-19 -58 -20 -88 -21 -464 0 -365 1 -405 17 -436 51 -100 187 -107 245 -13 22
36 22 41 23 434 1 383 2 399 21 425 45 60 102 80 166 58 43 -14 59 -29 82 -72
14 -28 16 -81 16 -420 0 -370 1 -390 20 -421 57 -93 186 -95 242 -4 22 36 22
40 22 427 0 214 -3 410 -7 435 -4 25 -24 79 -44 120 -46 90 -129 166 -219 200
-66 25 -184 34 -250 20z"/>
<path d="M1310 1555 c-160 -45 -286 -188 -308 -350 -4 -33 -7 -229 -7 -435 1
-371 1 -376 23 -412 57 -92 188 -88 244 8 17 28 18 66 21 430 l2 399 24 32
c48 64 142 76 201 26 17 -14 36 -38 42 -52 6 -14 12 -97 12 -183 l2 -158 -49
0 c-119 0 -194 -109 -143 -208 25 -48 68 -73 131 -75 30 -1 55 -4 56 -7 1 -3
2 -44 3 -91 2 -64 8 -95 22 -119 56 -95 195 -89 247 11 16 31 17 71 17 438 -1
377 -2 408 -21 463 -42 127 -134 223 -259 272 -62 25 -191 30 -260 11z"/>
</g>
</svg>
